<svg id="Layer_1" data-name="Layer 1" xmlns="http://www.w3.org/2000/svg" xmlns:xlink="http://www.w3.org/1999/xlink" viewBox="0 0 540.39 133.84"><defs><style>.cls-1{fill:url(#linear-gradient);}.cls-2{fill:#5abb93;}.cls-3{fill:#57bd7d;}.cls-4{fill:#43bea9;}.cls-5{fill:#ddece0;}</style><linearGradient id="linear-gradient" x1="12.06" y1="67.37" x2="121.08" y2="67.37" gradientUnits="userSpaceOnUse"><stop offset="0" stop-color="#43bea9"/><stop offset="1" stop-color="#57bd7d"/></linearGradient></defs><title>logo-white</title><path class="cls-1" d="M109.5,98.69a29.66,29.66,0,0,0,11.58,7.18,114.23,114.23,0,0,1-17.22,1.28,105.39,105.39,0,0,1-37.35-6.49,69.29,69.29,0,0,1-15.62-8.22,1.08,1.08,0,0,0-1.63.48,1,1,0,0,0-.08.4,1.08,1.08,0,0,0,.44.88,66.77,66.77,0,0,0,13.71,7.61,107.36,107.36,0,0,1-34.16,5.34,115.44,115.44,0,0,1-17.11-1.26,29.78,29.78,0,0,0,11.61-7.17C30.56,92,35.17,81.78,35.82,70.2c.06-.93.09-1.88.09-2.83s0-1.9-.09-2.84h0C35.17,53,30.56,42.75,23.67,36a29.64,29.64,0,0,0-11.61-7.16,114.09,114.09,0,0,1,17.11-1.27,105.6,105.6,0,0,1,37.34,6.49h0A69.31,69.31,0,0,1,82.13,42.3a1.09,1.09,0,0,0,1.64-.49,1.12,1.12,0,0,0,.07-.4,1.08,1.08,0,0,0-.44-.88,66.54,66.54,0,0,0-13.71-7.6,107.1,107.1,0,0,1,34.17-5.35,115.55,115.55,0,0,1,17.22,1.28A29.77,29.77,0,0,0,109.5,36c-7.12,7-11.81,17.67-12.18,29.75,0,.52,0,1,0,1.58s0,1,0,1.58C97.69,81,102.38,91.72,109.5,98.69Z"/><path class="cls-2" d="M86,113,72,127a7.63,7.63,0,0,1-10.81,0l-14-14a96.77,96.77,0,0,0,19.32-5.08A96.93,96.93,0,0,0,86,113Z"/><path class="cls-3" d="M126.21,72.77l-16,16a36.15,36.15,0,0,1-6.57-20.1c0-.42,0-.84,0-1.26s0-.85,0-1.27A36.2,36.2,0,0,1,110.25,46l16,16A7.63,7.63,0,0,1,126.21,72.77Z"/><path class="cls-2" d="M86,21.73a96.26,96.26,0,0,0-19.47,5.11,96.77,96.77,0,0,0-19.32-5.09l14-14A7.65,7.65,0,0,1,72,7.75Z"/><path class="cls-4" d="M29.54,67.37c0,.76,0,1.52-.07,2.27h0A36,36,0,0,1,23,88.73l-16-16A7.65,7.65,0,0,1,7,62L23,46a36.06,36.06,0,0,1,6.52,19.1h0C29.52,65.85,29.54,66.61,29.54,67.37Z"/><path class="cls-5" d="M167.1,75.64V26.47h10.46c1.56,6,6.49,28.27,6.88,30.43h.23c-.52-6.54-.86-15.49-.86-22.35V26.47h8.78V75.64H182C181,71,175.64,45.52,175.32,44h-.26c.37,5.78.66,15.56.66,23.29v8.4Z"/><path class="cls-5" d="M208.79,63.94l-1.21,11.7h-9.64l6.95-49.17H219l7.12,49.17h-9.84l-1.35-11.7Zm5.32-8.34c-.7-6.29-1.68-15.86-2.14-20.57h-.37c-.17,3.42-1.34,14.49-2,20.57Z"/><path class="cls-5" d="M233.31,34.83h-7.16V26.47H250v8.36h-7.2V75.64h-9.45Z"/><path class="cls-5" d="M264.47,26.47V63.91c0,2.87.87,4.4,3,4.4s3-1.74,3-4.4V26.47h9.57V63.3c0,8.72-4,13-12.71,13-8.54,0-12.4-4.16-12.4-13.1V26.47Z"/><path class="cls-5" d="M297,54.27V75.64h-9.44V26.47h12.27c8.24,0,12.31,3.62,12.31,12.22v1.77c0,7-2.79,9.09-4.9,10.08,3.06,1.48,4.49,3.73,4.49,10.59,0,4.75-.07,11.92.34,14.51h-9.15c-.61-2.22-.57-8.62-.57-14.9,0-5.53-.63-6.47-4.23-6.47Zm0-7.46h1.17c3.16,0,4.45-1,4.45-5.57V38.86c0-3.3-.66-4.94-4.14-4.94H297Z"/><path class="cls-5" d="M327.68,63.94l-1.21,11.7h-9.65l7-49.17h14.1L345,75.64h-9.83l-1.36-11.7ZM333,55.6c-.7-6.29-1.68-15.86-2.14-20.57h-.37c-.17,3.42-1.34,14.49-2,20.57Z"/><path class="cls-5" d="M350.24,26.47h9.47v40.9H371.6l-.85,8.27H350.24Z"/><path class="cls-5" d="M388,26.47h9.47v40.9h11.89l-.84,8.27H388Z"/><path class="cls-5" d="M423.55,26.47V75.64h-9.44V26.47Z"/><path class="cls-5" d="M436.18,75.64,428.8,26.47h10.06l1.75,18.21c.61,6.33,1.38,13.45,1.72,19.71h.38c.32-6.25,1.11-13,1.64-19.64l1.54-18.28h9.88L448.5,75.64Z"/><path class="cls-5" d="M470.27,26.47V75.64h-9.45V26.47Z"/><path class="cls-5" d="M478.05,75.64V26.47h10.46c1.56,6,6.49,28.27,6.88,30.43h.23c-.53-6.54-.86-15.49-.86-22.35V26.47h8.78V75.64H493c-1-4.68-6.4-30.12-6.72-31.69H486c.37,5.78.66,15.56.66,23.29v8.4Z"/><path class="cls-5" d="M535.58,75.64h-7.11A26.47,26.47,0,0,1,528,72c-1.56,3.45-4.72,4.38-7.76,4.38-7.65,0-9.8-5.7-9.8-13.73V39.51c0-7.54,3.12-13.78,12.5-13.78,11.32,0,12.46,8.24,12.46,13.2v2.21h-9.52v-2.7c0-2.39-.29-4.6-2.91-4.6-2.17,0-3,1.59-3,4.79V63.84c0,3.34,1.08,4.57,3,4.57,2.3,0,3.08-1.79,3.08-5.83v-7h-3.25v-8h12.75Z"/><path class="cls-5" d="M189.61,109.25a.5.5,0,0,1,.22.1l.43.45a15.92,15.92,0,0,1-1.93,1.64,12.53,12.53,0,0,1-2.28,1.27,14.09,14.09,0,0,1-2.71.82,16.26,16.26,0,0,1-3.24.29,13.83,13.83,0,0,1-5.36-1,12.1,12.1,0,0,1-4.21-2.93,13.38,13.38,0,0,1-2.76-4.6,17.27,17.27,0,0,1-1-6.06,16.94,16.94,0,0,1,1-6,13.35,13.35,0,0,1,2.81-4.61,12.64,12.64,0,0,1,4.35-3,14.37,14.37,0,0,1,5.58-1,13.74,13.74,0,0,1,5.07.87A14.2,14.2,0,0,1,189.71,88l-.31.44a.33.33,0,0,1-.32.15,1,1,0,0,1-.42-.23l-.77-.55c-.32-.23-.7-.47-1.16-.74a10.83,10.83,0,0,0-1.59-.73,14,14,0,0,0-2.07-.56,13.57,13.57,0,0,0-2.56-.22,13.1,13.1,0,0,0-5.08,1,11.2,11.2,0,0,0-4,2.72,12.47,12.47,0,0,0-2.59,4.29,18.18,18.18,0,0,0,0,11.42,12.55,12.55,0,0,0,2.57,4.29,11.15,11.15,0,0,0,3.88,2.69,12.35,12.35,0,0,0,4.86.94,18.59,18.59,0,0,0,3-.22,11.2,11.2,0,0,0,2.38-.68,10,10,0,0,0,2-1.09,20,20,0,0,0,1.83-1.49A.44.44,0,0,1,189.61,109.25Z"/><path class="cls-5" d="M218.81,84.93V113.5h-1.14v-14h-19.2v14h-1.12V84.93h1.12V98.56h19.2V84.93Z"/><path class="cls-5" d="M230,113.5h-1.12V84.93H230Z"/><path class="cls-5" d="M259,113.5h-.92a1.14,1.14,0,0,1-.39-.06.75.75,0,0,1-.34-.29l-10.08-12.33a2.46,2.46,0,0,0-.33-.37,1.9,1.9,0,0,0-.39-.23,1.73,1.73,0,0,0-.51-.13,4.84,4.84,0,0,0-.72,0H241.2V113.5h-1.12V84.93H247q4.65,0,7.07,1.81a6.4,6.4,0,0,1,2.42,5.48,7.22,7.22,0,0,1-.63,3.06,7,7,0,0,1-1.77,2.38,8.69,8.69,0,0,1-2.76,1.61,13.37,13.37,0,0,1-3.6.72,2.44,2.44,0,0,1,.71.61ZM241.2,99.19h5.44a13.14,13.14,0,0,0,3.63-.47A7.78,7.78,0,0,0,253,97.33a6.09,6.09,0,0,0,1.73-2.18,6.68,6.68,0,0,0,.6-2.88,5.62,5.62,0,0,0-2.16-4.88A10.46,10.46,0,0,0,247,85.82H241.2Z"/><path class="cls-5" d="M290.12,99.21a17.69,17.69,0,0,1-1,6.05,13.48,13.48,0,0,1-2.74,4.59,11.93,11.93,0,0,1-4.23,2.92,15.07,15.07,0,0,1-10.85,0,11.93,11.93,0,0,1-4.23-2.92,13.33,13.33,0,0,1-2.74-4.59,19.1,19.1,0,0,1,0-12.08,13.19,13.19,0,0,1,2.74-4.6,12.11,12.11,0,0,1,4.23-2.94,13.78,13.78,0,0,1,5.4-1,14.07,14.07,0,0,1,5.45,1,12.09,12.09,0,0,1,4.23,2.93,13.34,13.34,0,0,1,2.74,4.6A17.74,17.74,0,0,1,290.12,99.21Zm-1.17,0a17.3,17.3,0,0,0-.89-5.72,12.29,12.29,0,0,0-2.5-4.29,10.76,10.76,0,0,0-3.86-2.71,13.61,13.61,0,0,0-9.89,0A10.76,10.76,0,0,0,268,89.2a12.48,12.48,0,0,0-2.52,4.29,18.43,18.43,0,0,0,0,11.44,12.16,12.16,0,0,0,2.52,4.28,10.69,10.69,0,0,0,3.86,2.68,13.48,13.48,0,0,0,9.89,0,10.69,10.69,0,0,0,3.86-2.68,12,12,0,0,0,2.5-4.28A17.21,17.21,0,0,0,289,99.21Z"/><path class="cls-5" d="M305.12,84.93q4.83,0,7.34,2.07c1.68,1.38,2.51,3.46,2.51,6.22a7.87,7.87,0,0,1-.7,3.34,7.41,7.41,0,0,1-2,2.64,9.43,9.43,0,0,1-3.12,1.73,12.53,12.53,0,0,1-4,.62h-5.71v12h-1.12V84.93Zm0,15.71a10.89,10.89,0,0,0,3.63-.57,8.16,8.16,0,0,0,2.74-1.57,6.93,6.93,0,0,0,1.74-2.35,7.22,7.22,0,0,0,.61-2.93,6.91,6.91,0,0,0-2.18-5.51q-2.18-1.89-6.54-1.89h-5.71v14.82Z"/><path class="cls-5" d="M341.29,113.5h-.92a1.14,1.14,0,0,1-.39-.06.75.75,0,0,1-.34-.29l-10.08-12.33a2.46,2.46,0,0,0-.33-.37,1.9,1.9,0,0,0-.39-.23,1.73,1.73,0,0,0-.51-.13,4.84,4.84,0,0,0-.72,0h-4.16V113.5h-1.12V84.93h6.89q4.65,0,7.07,1.81a6.4,6.4,0,0,1,2.42,5.48,7.22,7.22,0,0,1-.63,3.06,7,7,0,0,1-1.77,2.38,8.69,8.69,0,0,1-2.76,1.61,13.37,13.37,0,0,1-3.6.72,2.44,2.44,0,0,1,.71.61ZM323.45,99.19h5.44a13.14,13.14,0,0,0,3.63-.47,7.78,7.78,0,0,0,2.74-1.39A6.09,6.09,0,0,0,337,95.15a6.68,6.68,0,0,0,.6-2.88,5.62,5.62,0,0,0-2.16-4.88,10.46,10.46,0,0,0-6.21-1.57h-5.77Z"/><path class="cls-5" d="M368.53,113.5h-.87a.49.49,0,0,1-.45-.35l-3.72-9H348.82l-3.71,9a.45.45,0,0,1-.47.35h-.83l11.82-28.57h1.08Zm-5.4-10.24-6.54-15.91a12.26,12.26,0,0,1-.43-1.22,7.57,7.57,0,0,1-.43,1.22l-6.54,15.91Z"/><path class="cls-5" d="M395.17,109.25a.53.53,0,0,1,.23.1l.42.45a15.2,15.2,0,0,1-1.93,1.64,12.78,12.78,0,0,1-2.27,1.27,14.2,14.2,0,0,1-2.72.82,16.26,16.26,0,0,1-3.24.29,13.78,13.78,0,0,1-5.35-1,12.14,12.14,0,0,1-4.22-2.93,13.38,13.38,0,0,1-2.76-4.6,17.27,17.27,0,0,1-1-6.06,16.94,16.94,0,0,1,1-6,13.35,13.35,0,0,1,2.81-4.61,12.73,12.73,0,0,1,4.35-3,14.44,14.44,0,0,1,5.58-1,13.83,13.83,0,0,1,5.08.87A14.29,14.29,0,0,1,395.27,88l-.3.44a.34.34,0,0,1-.33.15.9.9,0,0,1-.41-.23l-.78-.55c-.31-.23-.7-.47-1.15-.74a11.5,11.5,0,0,0-1.6-.73,14,14,0,0,0-2.07-.56,13.49,13.49,0,0,0-2.56-.22,13.13,13.13,0,0,0-5.08,1,11.16,11.16,0,0,0-4,2.72,12.32,12.32,0,0,0-2.59,4.29,18,18,0,0,0,0,11.42,12.24,12.24,0,0,0,2.57,4.29,11.06,11.06,0,0,0,3.88,2.69,12.33,12.33,0,0,0,4.85.94,18.59,18.59,0,0,0,2.95-.22,11.3,11.3,0,0,0,2.39-.68,10.24,10.24,0,0,0,2-1.09,20,20,0,0,0,1.84-1.49A.4.4,0,0,1,395.17,109.25Z"/><path class="cls-5" d="M421.08,85.9H410.61v27.6H409.5V85.9H399v-1h22.11Z"/><path class="cls-5" d="M428.33,113.5h-1.12V84.93h1.12Z"/><path class="cls-5" d="M459.32,109.25a.5.5,0,0,1,.22.1l.43.45a15.92,15.92,0,0,1-1.93,1.64,12.53,12.53,0,0,1-2.28,1.27,14.09,14.09,0,0,1-2.71.82,16.26,16.26,0,0,1-3.24.29,13.83,13.83,0,0,1-5.36-1,12.1,12.1,0,0,1-4.21-2.93,13.38,13.38,0,0,1-2.76-4.6,17.27,17.27,0,0,1-1-6.06,16.94,16.94,0,0,1,1-6,13.35,13.35,0,0,1,2.81-4.61,12.64,12.64,0,0,1,4.35-3,14.36,14.36,0,0,1,5.57-1,13.8,13.8,0,0,1,5.08.87A14.2,14.2,0,0,1,459.42,88l-.31.44a.33.33,0,0,1-.32.15,1,1,0,0,1-.42-.23l-.77-.55c-.32-.23-.7-.47-1.16-.74a10.83,10.83,0,0,0-1.59-.73,14,14,0,0,0-2.07-.56,13.6,13.6,0,0,0-2.57-.22,13.08,13.08,0,0,0-5.07,1,11.2,11.2,0,0,0-4,2.72,12.47,12.47,0,0,0-2.59,4.29,18.18,18.18,0,0,0,0,11.42,12.39,12.39,0,0,0,2.57,4.29,11.15,11.15,0,0,0,3.88,2.69,12.35,12.35,0,0,0,4.86.94,18.59,18.59,0,0,0,2.95-.22,11.2,11.2,0,0,0,2.38-.68,9.7,9.7,0,0,0,2-1.09,18.78,18.78,0,0,0,1.84-1.49A.44.44,0,0,1,459.32,109.25Z"/></svg>